<svg id="SVGDoc" width="103" height="83" xmlns="http://www.w3.org/2000/svg" version="1.1"
     xmlns:xlink="http://www.w3.org/1999/xlink"
     viewBox="0 0 103 83">
    <defs>
        <path d="M1413.99994,663.99979c0,8.28521 -6.71677,14.99997 -15,14.99997c-8.28518,0 -15,-6.71476 -15,-14.99997c0,-8.28204 6.71482,-14.99997 15,-14.99997c8.28323,0 15,6.71793 15,14.99997zM1448.99998,643.99984v45.00015c0,5.49999 -4.50005,9.99998 -10.00008,9.99998h-79.99992c-5.50003,0 -10.00008,-4.49999 -10.00008,-9.99998v-45.00015c0,-5.49999 4.50005,-9.99998 10.00008,-9.99998h11.99993c1.64989,0 3.42579,-1.28035 3.94924,-2.8447l3.10158,-9.3091c0.52105,-1.56582 2.29935,-2.84617 3.94924,-2.84617h33.99994c1.65047,0 3.42579,1.28035 3.94924,2.8447l3.10158,9.3091c0.52151,1.56582 2.29877,2.84617 3.94924,2.84617h11.99993c5.50003,0 10.00008,4.49999 10.00008,9.99998zM1423.9999,663.99979c0,-13.80616 -11.1953,-24.99995 -24.99996,-24.99995c-13.80707,0 -24.99996,11.19378 -24.99996,24.99995c0,13.80665 11.19289,25.00019 24.99996,25.00019c13.80466,0 24.99996,-11.19354 24.99996,-25.00019zM1438.9999,647.493c0,-1.93222 -1.56635,-3.49999 -3.49995,-3.49999c-1.93165,0 -3.50006,1.56777 -3.50006,3.49999c0,1.93369 1.56841,3.49999 3.50006,3.49999c1.93359,0 3.49995,-1.56631 3.49995,-3.49999z"
              id="Path-0"/>
    </defs>
    <desc>Generated with Avocode.</desc>
    <g transform="matrix(1,0,0,1,-1347,-617)">
        <g><title>Forma 1</title>
            <use xlink:href="#Path-0" fill="#ffffff" fill-opacity="1"/>
        </g>
    </g>
</svg>