<svg xmlns="http://www.w3.org/2000/svg" xmlns:xlink="http://www.w3.org/1999/xlink" width="52" height="52" viewBox="0 0 52 52"><defs><path id="y66ma" d="M2660 509c0 14.34-11.66 26-26 26s-26-11.66-26-26 11.66-26 26-26 26 11.66 26 26zm-33.02-2.9a2 2 0 0 0 .47 1.09c.1.1.15.22.17.36.55 3.65 3.61 7.1 6.3 7.1 3.16 0 6.17-3.75 6.74-7.1a.66.66 0 0 1 .16-.35c.23-.22.38-.56.45-.97.37-1.37.26-2 .13-2.18l-.1-.11a.65.65 0 0 1-.08-.53c.42-1.55.88-4.45-.81-6.36a6.39 6.39 0 0 0-3.27-2.02l-1.15-.4c-1.66-.5-2.78-.65-2.87-.65l-.1.02-.3.05-.11.01v-.03l-.46.03-.07.01c-.23.04-.45.1-.57.15-.56.23-3.43 1.53-4.35 4.34-.12.33-.46 1.64.06 4.8.04.25-.06.49-.27.64l-.05.06c-.21.32-.19 1.09.08 2.04zm-8.67 22.25c4.43 3.6 10 5.58 15.7 5.58 5.69 0 11.26-1.98 15.68-5.58-.24-2.61-.89-7.3-2.58-9.81-.07-.08-.7-.84-2.13-1.39l-.28-.08a29.92 29.92 0 0 0-2.98-1.19 8.84 8.84 0 0 1-1.76-.8l-.12-.08.03-.03-.27-.13c-.21-.1-.67-.43-.93-.68l-.3-.14-.1.1a6.76 6.76 0 0 1-4.35 1.82c-1.39 0-2.9-.71-4.28-2l-.15-.15-.15.14c-.26.24-.48.48-.62.64-.06.06-.13.13-.2.17-1.57 1.13-4.42 2.08-5.57 2.44a4.96 4.96 0 0 0-2.08 1.4c-1.68 2.5-2.32 7.16-2.56 9.77z"/></defs><g><g transform="translate(-2608 -483)"><use fill="#fff" xlink:href="#y66ma"/><use xlink:href="#y66ma"/></g></g></svg>