<svg xmlns="http://www.w3.org/2000/svg" xmlns:xlink="http://www.w3.org/1999/xlink" width="102" height="102" viewBox="0 0 102 102"><defs><path id="8b4ja" d="M1450 1070a50 50 0 1 1 0 100 50 50 0 0 1 0-100z"/><path id="8b4jc" d="M1455.31 1120.88a25.85 25.85 0 0 1 19.68 25.04 1.09 1.09 0 0 1-1.1 1.08h-49.79a1.1 1.1 0 0 1-1.1-1.09c.01-12.09 8.38-22.23 19.69-25.03a14.8 14.8 0 0 1-8.5-15.34c.67.37 1.38.7 2.11.98a12.56 12.56 0 0 0 3.7 9.88c2.3 2.3 5.48 3.7 9 3.7 3.52 0 6.7-1.4 9-3.7a12.56 12.56 0 0 0 3.7-9.82 17 17 0 0 0 2.11-.97 14.8 14.8 0 0 1-8.5 15.26zm-21.11-15.34l-.8-.49a1.02 1.02 0 0 1-.47-.85v-2.24c0-.56.45-1.02 1-1.02h1.23c.38-5.54 3.77-10.84 8.34-12.87l.69-.3v-.04c0-.96.76-1.73 1.7-1.73h6.22c.94 0 1.7.77 1.71 1.71l.83.37c4.56 2.03 7.94 7.33 8.32 12.86h1.1c.56 0 1 .46 1 1.02v2.32c0 .35-.17.68-.46.86-.26.17-.53.33-.8.47l-.04-.3h-2.22c.07.42.12.84.15 1.27-4.01 1.54-8.9 1.91-12.64 1.91-3.77 0-8.7-.38-12.76-1.97.03-.41.08-.81.15-1.21h-2.22l-.03.23zm-8.97 39.29l23.04-.35-.73-21.76s-4.17.45-4.92.43a23.8 23.8 0 0 0-10.45 6.05 23.48 23.48 0 0 0-6.94 15.63zm25.96-.35s5.3.35 21.58.35a23.48 23.48 0 0 0-6.94-15.63 23.83 23.83 0 0 0-9.8-5.87l-5.57-.6zm11.87-41.05v-.72H1462c-.56 0-1-.46-1-1.02 0-5.04-3.08-10.2-7.16-12.01l-.02-.01v8.99c0 .56-.45 1.02-1 1.02-.56 0-1-.46-1-1.02v-10.9h-5.62v10.9c0 .56-.45 1.02-1 1.02-.56 0-1.01-.46-1.01-1.02v-8.94c-4.03 1.86-7.05 6.97-7.05 11.97 0 .56-.45 1.02-1 1.02h-1.2v.64c4.21 2.45 10.6 2.83 14.12 2.83 4.27 0 10.09-.49 14-2.75z"/><clipPath id="8b4jb"><use fill="#fff" xlink:href="#8b4ja"/></clipPath></defs><g><g transform="translate(-1399 -1069)"><use fill="#fff" fill-opacity="0" stroke="#ff6a07" stroke-miterlimit="50" stroke-width="6" clip-path="url(&quot;#8b4jb&quot;)" xlink:href="#8b4ja"/></g><g transform="translate(-1399 -1069)"><use fill="#ff6a07" xlink:href="#8b4jc"/></g></g></svg>