<svg xmlns="http://www.w3.org/2000/svg" xmlns:xlink="http://www.w3.org/1999/xlink" width="102" height="102" viewBox="0 0 102 102"><defs><path id="j4g8a" d="M1449 1867a50 50 0 1 1 0 100 50 50 0 0 1 0-100z"/><path id="j4g8c" d="M1485 1908.87c0 1.18-.39 2.39-1.23 3.32l-9.41 10.38 1.04.96a4.3 4.3 0 0 1 .22 6.12l-.55.6a4.33 4.33 0 0 1-2.62 1.31 4.3 4.3 0 0 1-1.04 3.92l-.56.6a4.38 4.38 0 0 1-4.28 1.22c-.11.86-.47 1.7-1.11 2.39l-.56.6a4.38 4.38 0 0 1-6.16.22l-1.36-1.24c-.18.63-.5 1.24-.97 1.76l-.56.6a4.36 4.36 0 0 1-6.17.21l-3.49-3.22-2.57 2.68a4.37 4.37 0 0 1-6.17.14l-.59-.56a4.29 4.29 0 0 1-1.13-1.86 4.4 4.4 0 0 1-5.43-.46l-.6-.56a4.27 4.27 0 0 1-1.2-2.1 4.4 4.4 0 0 1-4.71-.85l-.6-.56a4.3 4.3 0 0 1-.8-5.19 4.33 4.33 0 0 1-1.92-1.04l-.6-.55a4.3 4.3 0 0 1-.14-6.12l2.9-3.03-6.12-5.22a4.25 4.25 0 0 1-.42-6.08l6.57-7.34a5.32 5.32 0 0 1 1.98-1.36c.74-.3 1.54-.45 2.34-.46.7 0 1.4.12 2.06.4l3.62 1.54a6.6 6.6 0 0 0 2.44.42c.93 0 1.86-.17 2.45-.42l3.6-1.53c.97-.41 2.07-.58 3.17-.58 1.22 0 2.43.2 3.45.7l2.1 1.05.62-.43a6.9 6.9 0 0 1 3.9-1.12c.95 0 1.9.17 2.76.58l5.3 2.56c.46.23 1.17.37 1.9.37.94 0 1.92-.24 2.48-.6l5.41-3.36a4.78 4.78 0 0 1 6.2 1.1l5.56 7.07c.69.89 1 1.96 1 3.02zm-63.48 17.13l.6.56a1.98 1.98 0 0 0 2.51.17l6.43-6.68c.23-.33.35-.72.35-1.11 0-.53-.6-1.43-.6-1.43l-.6-.56a1.98 1.98 0 0 0-1.36-.54c-.53 0-1.05.2-1.44.6l-5.96 6.2c-.36.39-.54.87-.54 1.36 0 .53.2 1.04.61 1.43zm5.28 7.88c.53 0 1.05-.2 1.44-.6l7.94-8.27a1.95 1.95 0 0 0-.06-2.78l-.6-.56a1.98 1.98 0 0 0-2.74.01c-.06.08-8 8.32-8 8.32-.37.38-.55.86-.55 1.36 0 .52.2 1.04.61 1.42l.6.56c.38.36.86.54 1.36.54zm6.51 3.51c.53 0 1.05-.2 1.44-.6l5.31-5.54a1.96 1.96 0 0 0-.07-2.78l-.59-.56a1.98 1.98 0 0 0-2.7-.03l-5.52 5.76a1.94 1.94 0 0 0 .17 2.65l.6.56c.38.36.86.54 1.36.54zm8.59 2.28l3.36-3.5a1.95 1.95 0 0 0-.07-2.78l-.6-.56a1.98 1.98 0 0 0-1.36-.54c-.53 0-1.05.2-1.44.61l-3.35 3.5a1.95 1.95 0 0 0 .07 2.78l.59.55a1.98 1.98 0 0 0 2.8-.07zm31.98-11.63a1.96 1.96 0 0 0-.1-2.78l-7.04-6.5a60.63 60.63 0 0 0-4.79-3.89l-6.09-4.35c-.5-.36-1.32-.6-2.15-.6-.7 0-1.38.17-1.82.44l-2.2 1.32a4.76 4.76 0 0 1-6.18-1.21l-.49-.65a4.22 4.22 0 0 1 .97-6.01l3.68-2.58-.96-.48a5.67 5.67 0 0 0-2.38-.46c-.84 0-1.68.15-2.23.39l-3.61 1.53a8.9 8.9 0 0 1-3.39.61 8.9 8.9 0 0 1-3.38-.6l-3.61-1.54c-.31-.14-.7-.21-1.12-.21-.48 0-1 .1-1.45.28a3 3 0 0 0-1.1.74l-6.57 7.34a1.9 1.9 0 0 0 .19 2.72l6.23 5.3 1.4-1.46a4.37 4.37 0 0 1 6.17-.15l.59.56a4.3 4.3 0 0 1 1.33 3c.13 0 .25-.03.38-.03 1.08 0 2.17.4 3 1.19l.6.56a4.3 4.3 0 0 1 1.1 4.57c.79.15 1.56.52 2.19 1.11l.59.56s1.35 2 1.35 3.14v.06l.24-.03c1.08 0 2.17.4 3 1.2l.6.56a4.3 4.3 0 0 1 .86 5.09l3.62 3.34c.38.35.86.52 1.35.52.53 0 1.06-.2 1.45-.62l.55-.6a1.94 1.94 0 0 0-.03-2.7l-4.16-3.82-.03-.03 1.61-1.73 8.3 7.64c.39.35.87.52 1.36.52.54 0 1.06-.2 1.45-.62l.56-.6a1.95 1.95 0 0 0-.08-2.75l-8.32-7.67 1.62-1.73 9.37 8.64c.38.35.86.52 1.35.52.54 0 1.06-.2 1.45-.62l.56-.6a1.96 1.96 0 0 0-.1-2.78l-10.04-9.26 1.62-1.73 9.37 8.64c.38.35.86.52 1.35.52.54 0 1.07-.21 1.46-.63zm8.12-17.43c.4-.42.63-1.08.63-1.74 0-.6-.19-1.16-.51-1.57l-5.55-7.07a2.4 2.4 0 0 0-3.06-.55l-5.41 3.36c-1.1.67-2.43.96-3.75.96a6.86 6.86 0 0 1-2.95-.6l-5.3-2.57a4.05 4.05 0 0 0-1.72-.34c-.95 0-1.95.28-2.51.69l-6.5 4.55a1.89 1.89 0 0 0-.44 2.68l.49.65a2.38 2.38 0 0 0 3.04.6l2.2-1.32a6 6 0 0 1 3.05-.78c1.25 0 2.51.31 3.55 1.04l6.08 4.35a62.64 62.64 0 0 1 5.01 4.08l4.26 3.93z"/><clipPath id="j4g8b"><use fill="#fff" xlink:href="#j4g8a"/></clipPath></defs><g><g transform="translate(-1398 -1866)"><use fill="#fff" fill-opacity="0" stroke="#ff6a07" stroke-miterlimit="50" stroke-width="6" clip-path="url(&quot;#j4g8b&quot;)" xlink:href="#j4g8a"/></g><g transform="translate(-1398 -1866)"><use fill="#ff6a07" xlink:href="#j4g8c"/></g></g></svg>