<svg xmlns="http://www.w3.org/2000/svg" xmlns:xlink="http://www.w3.org/1999/xlink" width="116" height="105" viewBox="0 0 116 105"><defs><path id="kkypa" d="M814 3135c7.11 0 13.88 1.49 20 4.17v2.18a48 48 0 1 0 27.16 34.65h2.01a50.07 50.07 0 0 1-49.17 59.28c-27.61 0-50-22.45-50-50.14a50.07 50.07 0 0 1 50-50.14z"/><path id="kkypb" d="M830.23 3160a4.78 4.78 0 0 1 4.76 4.8v38.4c0 2.65-2.13 4.8-4.76 4.8h-30.46a4.78 4.78 0 0 1-4.76-4.8v-38.4c0-2.65 2.13-4.8 4.76-4.8zm2.86 43.2v-38.4a2.87 2.87 0 0 0-2.86-2.88h-30.46a2.87 2.87 0 0 0-2.86 2.88v38.4a2.87 2.87 0 0 0 2.86 2.88h30.46c1.58 0 2.86-1.29 2.86-2.88zm0 0zm-29.6-32.33a.88.88 0 0 1-.87-.88c0-.49.39-.88.87-.88h20.08c.48 0 .87.4.87.88 0 .49-.39.88-.87.88zm0 4.02a.88.88 0 0 1-.87-.88c0-.49.39-.88.87-.88h20.08c.48 0 .87.4.87.88 0 .49-.39.88-.87.88zm0 4.02a.88.88 0 0 1-.87-.88c0-.49.39-.88.87-.88h20.08c.48 0 .87.4.87.88 0 .49-.39.88-.87.88zm10.04 2.26c.48 0 .87.4.87.88 0 .49-.39.88-.87.88h-10.04a.88.88 0 0 1-.87-.88c0-.49.39-.88.87-.88zm-3.01 7.94c.48 0 .87.39.87.88s-.39.88-.87.88h-7.03a.88.88 0 0 1-.87-.88c0-.49.39-.88.87-.88zm16.24-5.75a2.88 2.88 0 0 1 4.09-.17 2.93 2.93 0 0 1 .16 4.13l-1.16 1.27-.7.77-7.79 8.5-3.64 1.4-2.4.91.7-2.5 1.09-3.77 7.78-8.5.7-.77zm-9.43 15.53l3.46-1.32-.09-.32-2.98-2.77-.27-.04-1.03 3.6zm12.17-10.63l.84-.92-3.56-3.3-.84.91z"/></defs><g><g transform="translate(-763 -3132)"><use fill="#ff6a07" xlink:href="#kkypa"/></g><g transform="translate(-763 -3132)"><use fill="#ff6a07" xlink:href="#kkypb"/></g></g></svg>