<svg xmlns="http://www.w3.org/2000/svg" xmlns:xlink="http://www.w3.org/1999/xlink" width="116" height="105" viewBox="0 0 116 105"><defs><path id="6qcta" d="M1399 3135c7.11 0 13.88 1.49 20 4.17v2.18a48 48 0 1 0 27.16 34.65h2.01a50.07 50.07 0 0 1-49.17 59.28c-27.61 0-50-22.45-50-50.14a50.07 50.07 0 0 1 50-50.14z"/><path id="6qctb" d="M1409.1 3196.74a.96.96 0 0 1 0 1.93h-22.2a.96.96 0 0 1-.96-.97c0-.53.43-.96.97-.96zm0 4.4a.97.97 0 1 1 0 1.93H1398a.97.97 0 1 1 0-1.93zm-20.32-12.82c0-2.56 2.96-6.02 6.94-7.03a6.78 6.78 0 0 1-2.81-5.32 5.09 5.09 0 0 1 10.18 0c0 1.99-1.15 4.2-2.82 5.32 4 1.01 6.95 4.47 6.95 7.03 0 1.52-4.61 2.28-9.22 2.28l2.59-2.58-2.18-5.25h.02l.85-.97a3.7 3.7 0 0 1-2.55 0l.83.97h.03l-2.18 5.25 2.59 2.58c-4.61 0-9.22-.76-9.22-2.28zm9.22 2.28zm14-31.1a5.97 5.97 0 0 1 3 5.17v38.34a6 6 0 0 1-6 5.99h-22a6 6 0 0 1-6-6v-38.33a6 6 0 0 1 6-6h15.82a5.94 5.94 0 0 0-.79 2.4H1387a3.6 3.6 0 0 0-3.6 3.6v38.34a3.6 3.6 0 0 0 3.6 3.6h22.02a3.6 3.6 0 0 0 3.6-3.6v-38.34c0-.29-.05-.57-.11-.84v-2.04c0-.78-.2-1.55-.5-2.29zm-4.78 11.19c-2.4 0-4.35-2.15-4.35-4.79v-4.1c0-2.65 1.95-4.8 4.36-4.8.87 0 1.68.3 2.37.79l-1 .99c-.4-.25-.88-.41-1.37-.41-1.65 0-2.98 1.53-2.98 3.42v4.11c0 1.89 1.33 3.42 2.97 3.42 1.64 0 2.98-1.53 2.98-3.42v-4.1c0-.56-.12-1.06-.32-1.52l1.02-1.02c.42.74.67 1.6.67 2.53v4.11c0 2.64-1.95 4.79-4.35 4.79z"/></defs><g><g transform="translate(-1348 -3132)"><use fill="#ff6a07" xlink:href="#6qcta"/></g><g transform="translate(-1348 -3132)"><use fill="#ff6a07" xlink:href="#6qctb"/></g></g></svg>