<?xml version="1.0" standalone="no"?>
<!DOCTYPE svg PUBLIC "-//W3C//DTD SVG 20010904//EN"
 "http://www.w3.org/TR/2001/REC-SVG-20010904/DTD/svg10.dtd">
<svg version="1.0" xmlns="http://www.w3.org/2000/svg"
 width="501.000000pt" height="501.000000pt" viewBox="0 0 501.000000 501.000000"
 preserveAspectRatio="xMidYMid meet">
<metadata>
Created by potrace 1.11, written by Peter Selinger 2001-2013
</metadata>
<g transform="translate(0.000000,501.000000) scale(0.100000,-0.100000)"
fill="#000000" stroke="none">
<path d="M2334 4931 c-3 -3 -21 -6 -42 -7 -87 -4 -210 -14 -290 -25 -48 -6
-104 -12 -126 -15 -21 -2 -64 -8 -95 -13 -31 -6 -72 -12 -91 -15 -19 -3 -46
-8 -60 -11 -14 -3 -38 -8 -55 -11 -16 -3 -34 -7 -40 -8 -5 -1 -37 -8 -70 -15
-428 -91 -972 -299 -1326 -507 l-65 -39 1 -87 c0 -48 4 -90 7 -94 4 -3 3 -17
-2 -30 -5 -13 -6 -24 -2 -24 4 0 8 -17 8 -37 2 -99 24 -342 39 -423 2 -14 6
-45 9 -70 3 -25 8 -56 11 -70 3 -14 7 -38 10 -55 2 -16 13 -75 25 -130 28
-136 29 -139 46 -203 8 -32 17 -68 20 -82 6 -29 52 -175 96 -305 116 -340 317
-745 519 -1044 124 -182 280 -386 379 -496 20 -22 61 -67 91 -100 294 -327
708 -666 1071 -879 l97 -57 103 62 c454 274 859 614 1183 994 33 39 62 72 66
75 37 34 268 362 359 510 231 376 424 827 541 1265 17 61 32 121 35 135 3 14
9 41 14 60 12 48 38 176 45 225 4 22 8 47 10 55 5 15 22 133 31 205 2 22 7 54
9 70 3 17 8 71 11 120 8 103 11 140 14 140 1 0 3 10 4 23 2 12 -1 22 -6 22 -5
0 -6 6 -1 13 4 6 8 56 9 110 l1 99 -46 29 c-75 48 -457 235 -581 285 -187 75
-460 169 -550 189 -8 2 -62 15 -120 30 -58 15 -114 29 -125 31 -70 15 -371 64
-422 70 -35 3 -75 8 -90 10 -16 1 -66 6 -113 9 -138 10 -161 13 -167 19 -3 3
-14 1 -24 -4 -12 -7 -20 -7 -24 0 -4 7 -13 6 -27 -1 -11 -6 -18 -7 -15 -2 4 6
-34 9 -96 8 -56 -2 -102 -3 -102 -5 0 -1 -10 -3 -22 -4 -13 -2 -23 0 -23 4 0
7 -39 8 -46 1z"/>
</g>
</svg>
