<svg xmlns="http://www.w3.org/2000/svg" xmlns:xlink="http://www.w3.org/1999/xlink" width="103" height="102" viewBox="0 0 103 102"><defs><path id="q5cza" d="M456 1470a50 50 0 1 1 0 100 50 50 0 0 1 0-100z"/><path id="q5czc" d="M463.42 1517.17a28.5 28.5 0 0 1 21.57 27.63 1.2 1.2 0 0 1-1.2 1.2H429.2a1.2 1.2 0 0 1-1.2-1.2 28.5 28.5 0 0 1 21.57-27.63 16.35 16.35 0 0 1 6.92-31.17 16.36 16.36 0 0 1 6.92 31.17zm-1.67 2.08a26.22 26.22 0 0 0-9.8-.13l2.92 5.27h3.45zm-15.12-7.02a13.91 13.91 0 0 0 9.87 4.08 13.92 13.92 0 0 0 13.96-13.95c0-3.86-1.56-7.34-4.09-9.87a13.91 13.91 0 0 0-9.87-4.1c-3.86 0-7.34 1.57-9.87 4.1a13.91 13.91 0 0 0-4.09 9.87c0 3.85 1.56 7.34 4.09 9.87zm-16.19 31.37h18.74l3.72-17.82-3.4-6.1a26.05 26.05 0 0 0-19.06 23.92zm21.2 0h10.6l-4.21-16.81h-2.89zm13.07 0h17.85a26.08 26.08 0 0 0-18.34-23.72l-3.96 5.93z"/><clipPath id="q5czb"><use fill="#fff" xlink:href="#q5cza"/></clipPath></defs><g><g transform="translate(-404 -1469)"><use fill="#fff" fill-opacity="0" stroke="#ff6a07" stroke-miterlimit="50" stroke-width="6" clip-path="url(&quot;#q5czb&quot;)" xlink:href="#q5cza"/></g><g transform="translate(-404 -1469)"><use fill="#ff6a07" xlink:href="#q5czc"/></g></g></svg>