<svg xmlns="http://www.w3.org/2000/svg" xmlns:xlink="http://www.w3.org/1999/xlink" width="115" height="105" viewBox="0 0 115 105"><defs><path id="cozza" d="M1107 3135c7.11 0 13.88 1.49 20 4.17v2.18a48 48 0 1 0 27.16 34.65h2.01a50.07 50.07 0 0 1-49.17 59.28c-27.61 0-50-22.45-50-50.14a50.07 50.07 0 0 1 50-50.14z"/><path id="cozzb" d="M1130.29 3167c1.5 0 2.72 1.2 2.72 2.69v29.62c0 1.48-1.23 2.7-2.72 2.7h-47.58a2.71 2.71 0 0 1-2.72-2.7v-29.62c0-1.48 1.23-2.7 2.72-2.7zm.68 31.54v-28.26l-21.68 16.1c-.82.6-1.81.87-2.79.88a4.7 4.7 0 0 1-2.79-.87l-21.68-16.11v28.26l11.44-14c.36-.43 1-.5 1.44-.15a1 1 0 0 1 .15 1.42l-11.56 14.14-.03.04h46.06c0-.02-.02-.03-.03-.04l-11.56-14.14a1 1 0 0 1 .15-1.42 1.03 1.03 0 0 1 1.44.15zm-47.24-29.52l21.2 15.75c.39.29.97.47 1.57.47.6 0 1.18-.18 1.56-.47l21.2-15.75z"/></defs><g><g transform="translate(-1056 -3132)"><use fill="#ff6a07" xlink:href="#cozza"/></g><g transform="translate(-1056 -3132)"><use fill="#ff6a07" xlink:href="#cozzb"/></g></g></svg>