<svg xmlns="http://www.w3.org/2000/svg" xmlns:xlink="http://www.w3.org/1999/xlink" width="115" height="105" viewBox="0 0 115 105"><defs><path id="9lcsa" d="M522 3135c7.11 0 13.88 1.49 20 4.17v2.18a48 48 0 1 0 27.16 34.65h2.01a50.07 50.07 0 0 1-49.17 59.28c-27.61 0-50-22.45-50-50.14a50.07 50.07 0 0 1 50-50.14z"/><path id="9lcsb" d="M506.2 3176.3a.93.93 0 0 1-.93-.94c0-.52.41-.94.92-.94h23.88c.5 0 .92.42.92.94s-.41.94-.92.94zm0 6.24a.93.93 0 0 1-.93-.94c0-.51.41-.93.92-.93h19.6c.5 0 .91.42.91.93 0 .52-.4.94-.91.94zm9.79 4.37c.5 0 .92.42.92.94s-.41.94-.92.94h-9.8a.93.93 0 0 1-.92-.94c0-.52.41-.94.92-.94zm34.65-9.32c.47.49.47 1.28 0 1.77l-4.04 4.11v15c0 1.37-1.1 2.5-2.44 2.5h-14.7l-4.6 4.68a6.18 6.18 0 0 1-2.04 1.28l-5.93 2.02c-.13.04-.24.06-.34.06-.41 0-.6-.33-.43-.85l1.97-6.05c.12-.34.32-.76.56-1.15h-19.2a2.48 2.48 0 0 1-2.44-2.5v-29.97c0-1.37 1.1-2.5 2.44-2.5h44.7a2.48 2.48 0 0 1 2.45 2.5v5.06c.1.05.19.12.26.2zm-51.8 20.87c0 .34.28.63.62.63h20.82l21.77-22.2-.79-.8a.3.3 0 0 0-.21-.09.3.3 0 0 0-.22.1l-7.39 7.53a.9.9 0 0 1-1.3 0 .95.95 0 0 1 0-1.33l7.4-7.53a2.12 2.12 0 0 1 3.02 0l.79.8 1.42-1.45v-5.63a.63.63 0 0 0-.61-.62h-44.7a.63.63 0 0 0-.62.62zm25.6 4.97l19.06-19.44-2.9-2.97-19.07 19.44zm-2.2 1.72c.22-.07.56-.26.85-.45l-2.8-2.86c-.2.3-.38.63-.45.86l-1.2 3.68zm22.53-6.69v-13.12l-13.48 13.75h12.87c.33 0 .6-.29.6-.63zm.03-15.8l4.1-4.19-2.9-2.96-4.1 4.19z"/></defs><g><g transform="translate(-471 -3132)"><use fill="#ff6a07" xlink:href="#9lcsa"/></g><g transform="translate(-471 -3132)"><use fill="#ff6a07" xlink:href="#9lcsb"/></g></g></svg>